<svg width="86" height="78" viewBox="0 0 86 78" fill="none" xmlns="http://www.w3.org/2000/svg">
<path d="M85.7593 22.9191C85.5529 18.7662 84.8131 15.9247 83.7637 13.4424C82.6627 10.8819 81.2004 8.69616 78.8091 6.54163C76.4178 4.38711 74.0265 3.02882 71.2052 2.04524C68.4698 1.07726 65.3388 0.421537 60.7627 0.234187C56.1694 0.0468375 54.7071 0 43.0432 0C31.362 0 29.8997 0.0468375 25.3236 0.234187C20.7475 0.421537 17.6165 1.09287 14.8811 2.04524C12.0426 3.04444 9.63407 4.3715 7.26 6.54163C4.88592 8.71177 3.38923 10.8819 2.30541 13.4424C1.256 15.9247 0.516251 18.7662 0.309809 22.9191C0.103368 27.0877 0.0517578 28.4147 0.0517578 39C0.0517578 49.6009 0.103368 50.9279 0.309809 55.0809C0.516251 59.2338 1.256 62.0753 2.30541 64.5576C3.40643 67.1181 4.86872 69.3038 7.26 71.4584C9.63407 73.6285 12.0426 74.9712 14.8639 75.9548C17.5993 76.9227 20.7303 77.5785 25.3064 77.7658C29.8997 77.9532 31.362 78 43.026 78C54.7071 78 56.1694 77.9532 60.7455 77.7658C65.3216 77.5785 68.4526 76.9071 71.188 75.9548C74.0093 74.9556 76.4178 73.6285 78.7919 71.4584C81.166 69.2882 82.6627 67.1181 83.7465 64.5576C84.8131 62.0753 85.5357 59.2338 85.7421 55.0809C85.9485 50.9123 86.0001 49.5853 86.0001 39C86.0001 28.4147 85.9657 27.0721 85.7593 22.9191ZM78.035 54.7686C77.8457 58.5781 77.1404 60.6545 76.5555 62.0128C75.7813 63.8239 74.8351 65.1353 73.3212 66.5092C71.8073 67.8831 70.3794 68.7106 68.3666 69.4444C66.8527 69.9752 64.5647 70.6153 60.3842 70.787C55.8597 70.9744 54.5006 71.0212 43.0087 71.0212C31.5168 71.0212 30.1578 70.9744 25.6333 70.787C21.4356 70.6153 19.1476 69.9752 17.6509 69.4444C15.6553 68.7418 14.2102 67.8831 12.6963 66.5092C11.1824 65.1353 10.2706 63.8395 9.46204 62.0128C8.87712 60.6389 8.17178 58.5624 7.98254 54.7686C7.7761 50.6625 7.72449 49.4291 7.72449 39C7.72449 28.5709 7.7761 27.3375 7.98254 23.2314C8.17178 19.4219 8.87712 17.3455 9.46204 15.9872C10.2362 14.1761 11.1824 12.8647 12.6963 11.4908C14.2102 10.1169 15.6381 9.28943 17.6509 8.55564C19.1648 8.02482 21.4528 7.38471 25.6333 7.21297C30.1578 7.02562 31.5168 6.97878 43.0087 6.97878C54.5006 6.97878 55.8597 7.02562 60.3842 7.21297C64.5819 7.38471 66.8699 8.02482 68.3666 8.55564C70.3622 9.25821 71.8073 10.1169 73.3212 11.4908C74.8351 12.8647 75.7469 14.1605 76.5555 15.9872C77.1404 17.3611 77.8457 19.4376 78.035 23.2314C78.2414 27.3375 78.293 28.5709 78.293 39C78.293 49.4291 78.2242 50.6625 78.035 54.7686Z" fill="url(#paint0_linear_156_444)"/>
<path d="M43.0091 18.9536C30.7947 18.9536 20.9199 27.9308 20.9199 39.0001C20.9199 50.0849 30.8119 59.0465 43.0091 59.0465C55.2064 59.0465 65.0984 50.0537 65.0984 39.0001C65.0984 27.9152 55.2236 18.9536 43.0091 18.9536ZM43.0091 52.0053C35.0956 52.0053 28.6787 46.1818 28.6787 39.0001C28.6787 31.8183 35.0956 25.9948 43.0091 25.9948C50.9227 25.9948 57.3396 31.8183 57.3396 39.0001C57.3396 46.1818 50.9227 52.0053 43.0091 52.0053Z" fill="url(#paint1_linear_156_444)"/>
<path d="M65.9584 22.8566C68.8088 22.8566 71.1194 20.7596 71.1194 18.1729C71.1194 15.5861 68.8088 13.4891 65.9584 13.4891C63.108 13.4891 60.7974 15.5861 60.7974 18.1729C60.7974 20.7596 63.108 22.8566 65.9584 22.8566Z" fill="#BC30A0"/>
<path d="M0 39C0 49.6009 0.0516103 50.9279 0.258052 55.0809C0.464493 59.2338 1.20424 62.0753 2.25365 64.5576C3.35467 67.1181 4.81696 69.3038 7.20824 71.4584C9.58232 73.6129 11.9908 74.9712 14.8122 75.9548C17.5475 76.9227 20.6785 77.5785 25.2547 77.7658C29.848 77.9532 31.3103 78 42.9742 78C54.6553 78 56.1176 77.9532 60.6937 77.7658C65.2699 77.5785 68.4009 76.9071 71.1362 75.9548C73.9576 74.9556 76.3661 73.6285 78.7402 71.4584C81.1142 69.3038 82.6109 67.1181 83.6947 64.5576C84.7614 62.0753 85.4839 59.2338 85.6903 55.0809C85.8968 50.9123 85.9484 49.5853 85.9484 39C85.9484 28.3991 85.8968 27.0721 85.6903 22.9191C85.4839 18.7662 84.7442 15.9247 83.6947 13.4424C82.5937 10.8819 81.1314 8.69616 78.7402 6.54163C76.3833 4.3715 73.9748 3.02882 71.1534 2.04524C68.4181 1.07726 65.2871 0.421537 60.7109 0.234187C56.1176 0.0468375 54.6553 0 42.9914 0C31.3103 0 29.848 0.0468375 25.2719 0.234187C20.6957 0.421537 17.5647 1.09287 14.8294 2.04524C12.008 3.04444 9.59952 4.3715 7.22545 6.54163C4.85137 8.71177 3.35467 10.8819 2.27085 13.4424C1.20424 15.9247 0.464493 18.7662 0.258052 22.9191C0.0516103 27.0721 0 28.3991 0 39ZM7.75875 39C7.75875 28.5865 7.81036 27.3375 8.0168 23.2314C8.20604 19.4219 8.91138 17.3455 9.4963 15.9872C10.2705 14.1761 11.2166 12.8647 12.7305 11.4908C14.2444 10.1169 15.6723 9.28943 17.6851 8.55564C19.199 8.02482 21.4871 7.38471 25.6675 7.21297C30.192 7.02562 31.5511 6.97878 43.043 6.97878C54.5349 6.97878 55.894 7.02562 60.4185 7.21297C64.6161 7.38471 66.9042 8.02482 68.4009 8.55564C70.3965 9.25821 71.8416 10.1169 73.3555 11.4908C74.8694 12.8647 75.7812 14.1605 76.5897 15.9872C77.1746 17.3611 77.88 19.4376 78.0692 23.2314C78.2757 27.3375 78.3273 28.5709 78.3273 39C78.3273 49.4291 78.2757 50.6625 78.0692 54.7686C77.88 58.5781 77.1746 60.6545 76.5897 62.0128C75.8156 63.8239 74.8694 65.1353 73.3555 66.5092C71.8416 67.8831 70.4137 68.7106 68.4009 69.4444C66.887 69.9752 64.5989 70.6153 60.4185 70.787C55.894 70.9744 54.5349 71.0212 43.043 71.0212C31.5511 71.0212 30.192 70.9744 25.6675 70.787C21.4699 70.6153 19.1818 69.9752 17.6851 69.4444C15.6895 68.7418 14.2444 67.8831 12.7305 66.5092C11.2166 65.1353 10.3049 63.8395 9.4963 62.0128C8.91138 60.6389 8.20604 58.5624 8.0168 54.7686C7.79316 50.6625 7.75875 49.4135 7.75875 39Z" fill="url(#paint2_linear_156_444)"/>
<defs>
<linearGradient id="paint0_linear_156_444" x1="72.7256" y1="5.96441" x2="17.6398" y2="80.3776" gradientUnits="userSpaceOnUse">
<stop stop-color="#AE3DAE"/>
<stop offset="0.0468721" stop-color="#B23BA6"/>
<stop offset="0.1216" stop-color="#BD368E"/>
<stop offset="0.2148" stop-color="#CE2E69"/>
<stop offset="0.3216" stop-color="#E62335"/>
<stop offset="0.418" stop-color="#FF1800"/>
</linearGradient>
<linearGradient id="paint1_linear_156_444" x1="53.5436" y1="22.9218" x2="34.047" y2="59.0429" gradientUnits="userSpaceOnUse">
<stop stop-color="#E12F6A"/>
<stop offset="0.1705" stop-color="#EA3751"/>
<stop offset="0.3563" stop-color="#F13D3E"/>
<stop offset="0.5467" stop-color="#F64133"/>
<stop offset="0.7469" stop-color="#F7422F"/>
<stop offset="0.7946" stop-color="#F74C2F"/>
<stop offset="0.8743" stop-color="#F7652F"/>
<stop offset="0.9757" stop-color="#F78F2E"/>
<stop offset="1" stop-color="#F79A2E"/>
</linearGradient>
<linearGradient id="paint2_linear_156_444" x1="62.4865" y1="-3.2111" x2="30.3157" y2="81.3377" gradientUnits="userSpaceOnUse">
<stop offset="0.2341" stop-color="#9E35A5" stop-opacity="0"/>
<stop offset="0.4512" stop-color="#D42F7F" stop-opacity="0.5"/>
<stop offset="0.7524" stop-color="#F7772E"/>
<stop offset="0.9624" stop-color="#FEF780"/>
</linearGradient>
</defs>
</svg>
