<svg width="158" height="132" viewBox="0 0 158 132" fill="none" xmlns="http://www.w3.org/2000/svg">
<path id="Vector" d="M157.293 66L140.051 83.2465L139.882 83.4158L139.907 83.6537L142.372 106.454L116.968 111.395L116.766 111.434L116.65 111.605L103.225 131.394L79.1748 122.417L79 122.352L78.8252 122.417L54.775 131.394L41.3501 111.605L41.2343 111.434L41.0318 111.395L15.6283 106.454L18.0926 83.6537L18.1183 83.4158L17.9491 83.2465L0.707016 66L17.9491 48.7535L18.1183 48.5842L18.0926 48.3463L15.6283 25.5459L41.0318 20.6051L41.2343 20.5657L41.3501 20.395L54.775 0.605815L78.8252 9.58272L79 9.64798L79.1748 9.58272L103.225 0.605814L116.65 20.395L116.766 20.5657L116.968 20.6051L142.372 25.5459L139.907 48.3463L139.882 48.5842L140.051 48.7535L157.293 66ZM71.1298 88.6905L71.4591 88.9787L71.7884 88.6905L112.366 53.1762L112.788 52.8065L112.372 52.4295L102.318 43.3153L101.988 43.0161L101.653 43.3095L71.4552 69.7389L56.3431 56.8199L56.0143 56.5389L55.6889 56.8238L45.6343 65.6238L45.2044 66L45.6343 66.3762L71.1298 88.6905Z" fill="#4BED13" stroke="black"/>
</svg>
