<svg width="93" height="68" viewBox="0 0 93 68" fill="none" xmlns="http://www.w3.org/2000/svg">
<g id="gmail">
<path id="Vector" d="M72.0799 6.06738L46.7707 24.6823L20.8828 6.06738V6.07241L20.9141 6.09757V32.1635L46.4787 51.1809L72.0799 32.898V6.06738Z" fill="#EA4335"/>
<path id="Vector_2" d="M78.7267 1.53936L72.0801 6.06731V32.898L92.9947 17.7645V8.64825C92.9947 8.64825 90.456 -4.37214 78.7267 1.53936Z" fill="#FBBC05"/>
<path id="Vector_3" d="M72.0801 32.8981V67.6979H88.1101C88.1101 67.6979 92.6715 67.2552 92.9999 62.3549V17.7646L72.0801 32.8981Z" fill="#34A853"/>
<path id="Vector_4" d="M20.9141 67.7279V32.1633L20.8828 32.1382L20.9141 67.7279Z" fill="#C5221F"/>
<path id="Vector_5" d="M20.8834 6.07264L14.2732 1.56984C2.54395 -4.34166 0 8.6737 0 8.6737V17.79L20.8834 32.1386V6.07264Z" fill="#C5221F"/>
<path id="Vector_6" d="M20.8828 6.07227V32.1382L20.9141 32.1633V6.09742L20.8828 6.07227Z" fill="#C5221F"/>
<path id="Vector_7" d="M0 17.7948V62.3851C0.323207 67.2904 4.88981 67.7281 4.88981 67.7281H20.9198L20.8834 32.1384L0 17.7948Z" fill="#4285F4"/>
</g>
</svg>
