<svg width="75" height="54" viewBox="0 0 75 54" fill="none" xmlns="http://www.w3.org/2000/svg">
<path id="Vector" d="M67.2929 13.4459C67.3233 14.0399 67.3233 14.6069 67.3233 15.2009C67.3538 33.2099 51.8786 54 23.5784 54C15.2315 54 7.03696 51.867 0 47.871C1.21852 48.006 2.43704 48.06 3.65556 48.06C10.5707 48.06 17.303 46.008 22.7559 42.201C16.1759 42.093 10.3879 38.2859 8.37734 32.7239C10.6925 33.1289 13.0686 33.0479 15.3229 32.4809C8.16409 31.2389 3.01584 25.6499 2.98538 19.1429C2.98538 19.0889 2.98538 19.0349 2.98538 18.9809C5.11779 20.0339 7.52437 20.6279 9.96141 20.6819C3.22908 16.6859 1.12713 8.72086 5.20918 2.48383C13.0382 11.0159 24.5532 16.1729 36.9212 16.7399C35.6722 12.0149 37.3782 7.04685 41.3688 3.69884C47.5528 -1.45818 57.301 -1.18818 63.1499 4.29284C66.5922 3.69884 69.9127 2.56484 72.9285 0.97183C71.7709 4.13084 69.3643 6.80385 66.1657 8.50485C69.212 8.18085 72.1974 7.45185 75 6.37185C72.9285 9.12586 70.3087 11.5019 67.2929 13.4459Z" fill="#1D9BF0"/>
</svg>
